{
  "accessors": [
    {
      "bufferView": 2,
      "componentType": 5126,
      "count": 34093,
      "max": [
        535.5238647460938,
        539.2084350585938,
        26.0
      ],
      "min": [
        -535.5238647460938,
        -535.5238647460938,
        -702.7832641601563
      ],
      "type": "VEC3"
    },
    {
      "bufferView": 2,
      "byteOffset": 409116,
      "componentType": 5126,
      "count": 34093,
      "max": [
        1.0,
        1.0,
        1.0
      ],
      "min": [
        -1.0,
        -1.0,
        -1.0
      ],
      "type": "VEC3"
    },
    {
      "bufferView": 1,
      "componentType": 5126,
      "count": 34093,
      "max": [
        1.0057249069213867,
        1.0057249069213867
      ],
      "min": [
        -0.005724906921386719,
        -0.005724906921386719
      ],
      "type": "VEC2"
    },
    {
      "bufferView": 0,
      "componentType": 5125,
      "count": 174474,
      "type": "SCALAR"
    },
    {
      "bufferView": 2,
      "byteOffset": 818232,
      "componentType": 5126,
      "count": 1762,
      "max": [
        529.7714233398438,
        529.7713623046875,
        16.0
      ],
      "min": [
        -529.7713623046875,
        -529.7714233398438,
        0.0
      ],
      "type": "VEC3"
    },
    {
      "bufferView": 2,
      "byteOffset": 839376,
      "componentType": 5126,
      "count": 1762,
      "max": [
        1.0,
        1.0,
        1.0
      ],
      "min": [
        -1.0,
        -1.0,
        -1.0
      ],
      "type": "VEC3"
    },
    {
      "bufferView": 1,
      "byteOffset": 272744,
      "componentType": 5126,
      "count": 1762,
      "max": [
        1.2083224058151245,
        0.9913924932479858
      ],
      "min": [
        -0.2083224654197693,
        0.00860750675201416
      ],
      "type": "VEC2"
    },
    {
      "bufferView": 0,
      "byteOffset": 697896,
      "componentType": 5125,
      "count": 10560,
      "type": "SCALAR"
    }
  ],
  "asset": {
    "extras": {
      "author": "Zuo Modern (https://sketchfab.com/zuo)",
      "license": "CC-BY-NC-ND-4.0 (http://creativecommons.org/licenses/by-nc-nd/4.0/)",
      "source": "https://sketchfab.com/3d-models/scotts-bluff-dining-table-distressed-100438-ca8264cb29304c52963afee969e9206a",
      "title": "Scotts Bluff Dining Table Distressed - 100438"
    },
    "generator": "Sketchfab-12.68.0",
    "version": "2.0"
  },
  "bufferViews": [
    {
      "buffer": 0,
      "byteLength": 740136,
      "name": "floatBufferViews",
      "target": 34963
    },
    {
      "buffer": 0,
      "byteLength": 286840,
      "byteOffset": 740136,
      "byteStride": 8,
      "name": "floatBufferViews",
      "target": 34962
    },
    {
      "buffer": 0,
      "byteLength": 860520,
      "byteOffset": 1026976,
      "byteStride": 12,
      "name": "floatBufferViews",
      "target": 34962
    }
  ],
  "buffers": [
    {
      "byteLength": 1887496,
      "uri": "scene.bin"
    }
  ],
  "images": [
    {
      "uri": "textures/02_-_Default_baseColor.jpeg"
    }
  ],
  "materials": [
    {
      "doubleSided": true,
      "name": "01_-_Default",
      "pbrMetallicRoughness": {
        "baseColorFactor": [
          0.0046469190529400605,
          0.004621732025844297,
          0.004621732025844297,
          1.0
        ],
        "metallicFactor": 0.0,
        "roughnessFactor": 0.4609015122899469
      }
    },
    {
      "doubleSided": true,
      "name": "02_-_Default",
      "pbrMetallicRoughness": {
        "baseColorTexture": {
          "index": 0
        },
        "metallicFactor": 0.0,
        "roughnessFactor": 0.831970694679884
      }
    }
  ],
  "meshes": [
    {
      "name": "Donut001_01 - Default_0",
      "primitives": [
        {
          "attributes": {
            "NORMAL": 1,
            "POSITION": 0,
            "TEXCOORD_0": 2
          },
          "indices": 3,
          "material": 0,
          "mode": 4
        }
      ]
    },
    {
      "name": "Cylinder001_02 - Default_0",
      "primitives": [
        {
          "attributes": {
            "NORMAL": 5,
            "POSITION": 4,
            "TEXCOORD_0": 6
          },
          "indices": 7,
          "material": 1,
          "mode": 4
        }
      ]
    }
  ],
  "nodes": [
    {
      "children": [
        1
      ],
      "matrix": [
        1.0,
        0.0,
        0.0,
        0.0,
        0.0,
        2.220446049250313e-16,
        -1.0,
        0.0,
        0.0,
        1.0,
        2.220446049250313e-16,
        0.0,
        0.0,
        0.0,
        0.0,
        1.0
      ],
      "name": "Sketchfab_model"
    },
    {
      "children": [
        2
      ],
      "matrix": [
        1.0,
        0.0,
        0.0,
        0.0,
        0.0,
        0.0,
        1.0,
        0.0,
        0.0,
        -1.0,
        0.0,
        0.0,
        0.0,
        0.0,
        0.0,
        1.0
      ],
      "name": "a950d89673c046479b1d7cf36548b9ef.fbx"
    },
    {
      "children": [
        3
      ],
      "name": "RootNode"
    },
    {
      "children": [
        4,
        6
      ],
      "matrix": [
        1.0,
        0.0,
        0.0,
        0.0,
        0.0,
        2.220446049250313e-16,
        -1.0,
        0.0,
        0.0,
        1.0,
        2.220446049250313e-16,
        0.0,
        403.01171875,
        385.8247375488281,
        400.97125244140625,
        1.0
      ],
      "name": "100438"
    },
    {
      "children": [
        5
      ],
      "matrix": [
        1.0,
        0.0,
        0.0,
        0.0,
        0.0,
        1.0,
        0.0,
        0.0,
        0.0,
        0.0,
        1.055999994277954,
        0.0,
        0.0,
        -1.84234619140625,
        356.3143005371094,
        1.0
      ],
      "name": "Donut001"
    },
    {
      "mesh": 0,
      "name": "Donut001_01 - Default_0"
    },
    {
      "children": [
        7
      ],
      "matrix": [
        0.17364810008081333,
        0.9848077666927307,
        0.0,
        0.0,
        -0.9848077666927307,
        0.17364810008081333,
        0.0,
        0.0,
        0.0,
        0.0,
        1.0,
        0.0,
        -6.103515625e-05,
        -1.84234619140625,
        369.8247985839844,
        1.0
      ],
      "name": "Cylinder001"
    },
    {
      "mesh": 1,
      "name": "Cylinder001_02 - Default_0"
    }
  ],
  "samplers": [
    {
      "magFilter": 9729,
      "minFilter": 9987,
      "wrapS": 10497,
      "wrapT": 10497
    }
  ],
  "scene": 0,
  "scenes": [
    {
      "name": "Sketchfab_Scene",
      "nodes": [
        0
      ]
    }
  ],
  "textures": [
    {
      "sampler": 0,
      "source": 0
    }
  ]
}
